<?xml version="1.0" encoding="UTF-8"?>
<svg id="Layer_2" data-name="Layer 2" xmlns="http://www.w3.org/2000/svg" viewBox="0 0 803.42 248.08">
  <g id="Layer_1-2" data-name="Layer 1">
    <g>
      <path d="M105.93,87.81c20.53,10.33,33.91,32.24,29.84,54.76-3.7,20.45-18.2,35.35-37.03,43.18-7.26,2.09-14.86,5-22.71,5.02L.04,190.91,0,2.01c23.4.34,45.97-.92,68.58.55,15.99,1.04,29.7,10.32,38.99,21.77,22.73,35.08-2.81,57.66-3.35,61.14-.11.7,1.06,2.01,1.72,2.34ZM87.33,66.75c7.25-8.83,6.73-21.17-.49-29.77-3.39-4.05-8.6-6.77-13.37-9.25-3.33-.34-7.43-2.16-10.52-2.17l-38.84-.12v53.27c14.58.11,27.87.57,41.54-.35,8.74-.59,16.15-4.87,21.68-11.61ZM94.18,108.77c-11.75-5.52-24.98-6.58-38.11-6.51l-32.04.18v64.08c17.35.14,34.28.56,51.66-.26,12.81-.6,24.86-6.2,31.97-16.63,10.46-15.36,1.84-33.66-13.48-40.86Z"/>
      <path d="M185.9,90.52c9.59-1.1,17.27-.48,26.18-1.04l11.94-.75c7.73-.48,15.08-1.52,21.54-5.17,8.64-4.87,14.77-12.09,16.48-21.14,4.04-21.41-18.23-36.67-37.29-36.82l-43.83-.36c-1.68-.01-3.71,2.05-3.7,3.82l.51,80.38.34,81.23-23.21.39c-1.37-1.55-1.95-3.98-1.95-6.47l.03-182.66c27.85.82,54.74-1.45,81.29.91,18.47,1.64,33.92,13.2,43.91,26.88,15.26,26.28,9.04,52.06-14.11,70.31-17.69,13.94-34.22,7.67-29.43,14.63l52.27,75.92-29.76.36-4.58-5.94-53.33-75.16c-4.48-6.32-8.1-11.02-13.3-19.32Z"/>
      <path d="M785.07,154.25c-12.42,17.73-29.86,29.26-50.64,33.99-3.63.83-8.85,2.3-12.61,2.31l-67.95.3V2c24.29.59,47.46-1.27,70.67.66,24.58,2.05,45.2,15.31,59.93,33.98,24.73,35.12,25.57,81.96.6,117.61ZM768.5,56.68c-4.08-6.84-9.67-12.42-15.44-17.64-6.31-5.71-14.42-8.8-22.57-11.24l-11.6-2.21-40.65-.17.04,141.94c18.52.27,35.77,1.45,52.58-2.94,22.43-5.86,38.1-23.11,44.87-44.8,6.63-21.23,4.58-43.14-7.23-62.95Z"/>
      <path d="M626.36,186.84c0,2.86.92,5.01-1.37,6.36-2.77-2.54-5.25-5.24-7.69-7.9l-26.24-28.52-21.22-22.82-51.58-56.16c-4.83-5.26-8.68-10.16-14.97-14.92l-.11,128.07-24.23-.09-.05-186.53c0-.61.74-2.24,1.01-2.69.36-.59,2.08.4,2.68,1.05l44.6,48.19,13.59,14.5,26.32,28.52,12.54,13.46,21.35,22.98c1.08-1.91,1.84-4.29,1.84-6.5l-.02-121.75,23.35-.18.23,12.76-.05,172.19Z"/>
      <path d="M423.13,153.93h-86.4s-17.67,36.92-17.67,36.92c-8.81.13-17.28.34-26.08-.53L381.61,0l83.98,190.39c-8.61.91-17.45.64-26.14.3l-16.31-36.75ZM412.74,130.34l-29-66.13-3.51-5.04-32.94,70.83,65.45.33Z"/>
      <rect x="241.32" y="80.99" width="16.32" height="297.26" transform="translate(19.86 479.09) rotate(-90)"/>
      <path d="M505.59,226.89l5.29-16.55c2.27-1.09,6.11-1,8.85-.17l-11.93,36.28c-2.35.79-6.33.77-8.52-.06-2.72-7.82-4.81-14.77-8.79-22.89l-8.65,22.99c-2.3.82-6.32.76-8.5-.03l-11.33-35.74c2.08-1.38,6.46-1.8,8.16-.35l8.2,21.41,7.84-20.91c1.07-1.91,7.59-2.09,8.83-.16l6.69,18.67c.21.58,2.55,1.59,2.71,1.08l1.14-3.57Z"/>
      <path d="M574.8,228.1c0,11.03-8.96,19.98-20.02,19.98s-20.02-8.94-20.02-19.98,8.96-19.98,20.02-19.98,20.02,8.94,20.02,19.98ZM564.37,234.77c3.54-5.4,1.99-11.38-1.33-14.96-3.66-3.94-10.02-4.25-14.77-1.59-6.46,3.62-6.85,12.78-2.06,17.77,4.82,5.02,13.92,5.26,18.16-1.22Z"/>
      <path d="M725.01,237.36c-3.73,7.56-13.1,10.19-20.87,9.91l-11.33-.41.04-37.27,17.18.02c6.72,0,11.66,4.1,14.48,8.52,3.7,5.8,3.9,12.34.5,19.23ZM707.44,239.59c5.42-.83,8.55-3.12,10.36-6.82,1.91-3.9,1.07-8.61-2.04-12.13-3.58-4.06-10.43-5.19-15.42-2.85l-.14,17.9c-.03,3.38,3.95,4.4,7.23,3.9Z"/>
      <path d="M625.42,245.65c-1.09,1.96-7.52,2.25-8.65.41l-5.84-9.5c-.85-1.38-5.16-1.58-6.53-.8l-.51,10.87c-2.15.42-5.39.35-7.99-.15l.05-36.77,19.17-.11c3.6-.02,8.74,3.73,9.68,6.99,4.23,14.58-6.68,15.21-4.77,18.83l5.39,10.24ZM617.45,223.77c1.86-4.18-2.85-7.38-6.21-7.19l-7.13.4.17,10.65c4.42,1.73,10.87,1.31,13.17-3.86Z"/>
      <path d="M670.69,239.79c1.56.35,1.77,4.91,1.15,7.06l-23.82.16-.55-23.17c-.1-4.16.22-8.42.56-13.49,1.82-.5,4.51-.73,7.12-.73l.35,29.53,15.18.63Z"/>
    </g>
  </g>
</svg>